<svg id="heart-hand" xmlns="http://www.w3.org/2000/svg" viewBox="0 0 64 64"><defs><style>.cls-1{fill:#ffe082;stroke:#eaca80;}.cls-1,.cls-2,.cls-3,.cls-4,.cls-6{stroke-linecap:round;stroke-linejoin:round;stroke-width:2px;}.cls-2{fill:#ff4931;stroke:#ff4931;}.cls-3{fill:#5b3b63;stroke:#5b3b63;opacity:0.1;}.cls-4{fill:#fff;stroke:#cfd8dc;}.cls-5{fill:#6989ff;}.cls-6{fill:none;stroke:#4f4f4f;}.cls-7{fill:#4f4f4f;}</style></defs><title>heart-hand</title><path class="cls-1" d="M54.93,40.1,50.68,18.55a2.5,2.5,0,0,0-2.84-2.1h0a2.5,2.5,0,0,0-2.1,2.84l2.87,19.29Z"/><path class="cls-1" d="M57.93,35.1,53.68,13.55a2.5,2.5,0,0,0-2.84-2.1h0a2.5,2.5,0,0,0-2.1,2.84l2.87,19.29Z"/><path class="cls-1" d="M9.31,40.1l4.25-21.56a2.5,2.5,0,0,1,2.84-2.1h0a2.5,2.5,0,0,1,2.1,2.84L15.63,38.57Z"/><path class="cls-1" d="M6.31,35.1l4.25-21.56a2.5,2.5,0,0,1,2.84-2.1h0a2.5,2.5,0,0,1,2.1,2.84L12.63,33.57Z"/><path class="cls-2" d="M48.24,15.95a9.42,9.42,0,0,0-13.32,0l-2.61,2.61L29.7,15.95A9.42,9.42,0,0,0,16.38,29.27L19,31.88h0L32.31,45.2,45.63,31.88h0l2.61-2.61A9.42,9.42,0,0,0,48.24,15.95Z"/><path class="cls-3" d="M48.24,24.27l-2.61,2.61L32.31,40.2,19,26.88h0l-2.61-2.61A9.37,9.37,0,0,1,14,20.11a9.41,9.41,0,0,0,2.42,9.16L19,31.88h0L32.31,45.2,45.63,31.88l2.61-2.61a9.41,9.41,0,0,0,2.42-9.16A9.37,9.37,0,0,1,48.24,24.27Z"/><path class="cls-1" d="M55.35,7.12a2.5,2.5,0,0,0-2.51,2.49L55,28,45.06,43.12l-3.4-4.73,1.58-3.67a5,5,0,0,0-2.61-6.57l-4.75,11L40,57.29,51.47,53.5,56.87,46l3-7A18.25,18.25,0,0,0,60.72,27h0L57.83,9.64A2.5,2.5,0,0,0,55.35,7.12Z"/><rect class="cls-4" x="37" y="53" width="17" height="8"/><circle class="cls-5" cx="49.72" cy="56.97" r="2" transform="translate(-22.27 80.08) rotate(-66.68)"/><path class="cls-1" d="M8.89,7.12a2.5,2.5,0,0,1,2.51,2.49L9,28,19.18,43.12l3.4-4.73L21,34.71a5,5,0,0,1,2.61-6.57l4.75,11L24.2,57.29,12.77,53.5,7.37,46l-3-7A18.25,18.25,0,0,1,3.52,27h0L6.41,9.64A2.5,2.5,0,0,1,8.89,7.12Z"/><rect class="cls-4" x="10.24" y="53" width="17" height="8" transform="translate(37.48 114) rotate(-180)"/><circle class="cls-5" cx="14.52" cy="56.97" r="2" transform="translate(-21.36 10.4) rotate(-23.32)"/><path class="cls-6" d="M26.86,26.07A7,7,0,0,0,32,28a7,7,0,0,0,5.1-1.9"/><circle class="cls-7" cx="23" cy="21" r="2"/><circle class="cls-7" cx="41" cy="21" r="2"/></svg>